<svg xmlns="http://www.w3.org/2000/svg" version="1.1" viewBox="-5.0 -10.0 110.0 135.0">
 <path d="m92.883 5.4844-12.523 44.434-3.8281-1.1367 8.207-29.113-29.051 50.141 14.582 1.1836 3.5117-12.449 3.8281 1.1367-3.9258 13.934c-0.097656 0.39062-0.31641 0.75781-0.65234 1.0352l-26.297 21.941c-1.0391 0.87109-2.6445 0.46484-3.1406-0.80469l-10.266-26.25-24.457-2.1172c-1.1016-0.09375-1.9141-1.0625-1.8203-2.1641 0.058594-0.64453 0.41406-1.1953 0.92188-1.5195l81.734-60.344c1.5-1.2188 3.7031 0.21484 3.1836 2.0859zm-13.066 46.359-0.5625 1.9883-3.8281-1.1367 0.5625-1.9883zm-1.1055 3.918-0.5625 1.9922-3.8281-1.1367 0.5625-1.9922zm-11.992 18.953-12.887-1.043-4.6133 15.648 17.504-14.605zm-16.289-3.6172c0.054687-0.23438 0.14844-0.44922 0.27344-0.64453l28.855-49.809-42.527 47.426 8.1445 20.84 5.25-17.809zm-35.957-7.2031 19.441 1.6836 42.551-47.453-61.996 45.77z"/>
<text x="0.0" y="117.5" font-size="5.0" font-weight="bold" font-family="Arbeit Regular, Helvetica, Arial-Unicode, Arial, Sans-serif" fill="#000000">Created by cakslankers</text><text x="0.0" y="122.5" font-size="5.0" font-weight="bold" font-family="Arbeit Regular, Helvetica, Arial-Unicode, Arial, Sans-serif" fill="#000000">from Noun Project</text></svg>