<svg xmlns="http://www.w3.org/2000/svg" version="1.1" viewBox="-5.0 -10.0 110.0 135.0">
 <path d="m59.52 35.762h-5.2578c-0.43359 0-0.78125 0.34766-0.78125 0.78125 0 0.43359 0.34766 0.78125 0.78125 0.78125h5.2578c0.43359 0 0.78125-0.34766 0.78125-0.78125 0-0.42969-0.35156-0.78125-0.78125-0.78125z"/>
 <path d="m59.52 52.176h-5.2578c-0.43359 0-0.78125 0.34766-0.78125 0.78125 0 0.43359 0.34766 0.78125 0.78125 0.78125h5.2578c0.43359 0 0.78125-0.34766 0.78125-0.78125 0-0.42969-0.35156-0.78125-0.78125-0.78125z"/>
 <path d="m44.141 35.762h-5.2578c-0.43359 0-0.78125 0.34766-0.78125 0.78125 0 0.43359 0.34766 0.78125 0.78125 0.78125h5.2578c0.43359 0 0.78125-0.34766 0.78125-0.78125 0-0.42969-0.35156-0.78125-0.78125-0.78125z"/>
 <path d="m44.141 52.176h-5.2578c-0.43359 0-0.78125 0.34766-0.78125 0.78125 0 0.43359 0.34766 0.78125 0.78125 0.78125h5.2578c0.43359 0 0.78125-0.34766 0.78125-0.78125 0-0.42969-0.35156-0.78125-0.78125-0.78125z"/>
 <path d="m80.516 80.805h-6.5703v-58.703c0-2.5977-2.1133-4.7148-4.7148-4.7148h-38.457c-2.6016 0-4.7188 2.1133-4.7188 4.7148v58.703h-6.5703c-0.43359 0-0.78125 0.34766-0.78125 0.78125 0 0.43359 0.34766 0.78125 0.78125 0.78125h19.664c0.125 0.26172 0.38672 0.44531 0.69531 0.44531h20.312c0.30859 0 0.57031-0.18359 0.69922-0.44531h19.66c0.43359 0 0.78125-0.34766 0.78125-0.78125 0-0.42969-0.35156-0.78125-0.78125-0.78125zm-21.141 0h-18.75v-12.836h18.75zm1.5625 0v-13.617c0-0.43359-0.34766-0.78125-0.78125-0.78125h-20.312c-0.43359 0-0.78125 0.34766-0.78125 0.78125v13.617h-11.445v-58.703c0-1.7383 1.4141-3.1523 3.1562-3.1523h38.457c1.7383 0 3.1523 1.4141 3.1523 3.1523v58.703z"/>
<text x="0.0" y="117.5" font-size="5.0" font-weight="bold" font-family="Arbeit Regular, Helvetica, Arial-Unicode, Arial, Sans-serif" fill="#000000">Created by Azzam</text><text x="0.0" y="122.5" font-size="5.0" font-weight="bold" font-family="Arbeit Regular, Helvetica, Arial-Unicode, Arial, Sans-serif" fill="#000000">from Noun Project</text></svg>