<svg xmlns="http://www.w3.org/2000/svg" xmlns:xlink="http://www.w3.org/1999/xlink" version="1.1" x="0px" y="0px" viewBox="0 0 150 187.5" enable-background="new 0 0 150 150" xml:space="preserve"><g><path d="M53.934,44.532c-5.271,0-9.542,4.274-9.542,9.541c0,5.268,4.271,9.542,9.542,9.542c5.27,0,9.541-4.274,9.541-9.542   C63.475,48.807,59.203,44.532,53.934,44.532z M53.934,58.593c-2.589,0-4.688-2.1-4.688-4.688s2.099-4.688,4.688-4.688   c2.588,0,4.688,2.1,4.688,4.688S56.521,58.593,53.934,58.593z"/><path d="M121.848,82.068c0-0.647-0.263-1.233-0.688-1.657l0.074-0.074L69.639,28.741l-0.008,0.007   c-0.417-0.384-0.969-0.623-1.58-0.623H30.496c-1.294,0-2.344,1.05-2.344,2.344v37.511h0.001c0.004,0.812,0.421,1.525,1.052,1.943   l50.898,50.897c0.42,0.635,1.138,1.055,1.955,1.055c0.824,0,1.547-0.428,1.964-1.071l36.792-36.793   C121.438,83.59,121.848,82.877,121.848,82.068z M82.055,116.143L32.84,66.929V32.812h34.24l49.152,49.151L82.055,116.143z"/></g><text x="0" y="165" fill="#000000" font-size="5px" font-weight="bold" font-family="'Helvetica Neue', Helvetica, Arial-Unicode, Arial, Sans-serif">Created by Ricardo Cardoso</text><text x="0" y="170" fill="#000000" font-size="5px" font-weight="bold" font-family="'Helvetica Neue', Helvetica, Arial-Unicode, Arial, Sans-serif">from the Noun Project</text></svg>