<svg xmlns="http://www.w3.org/2000/svg" version="1.1" viewBox="-5.0 -10.0 110.0 135.0">
 <path d="m93.5 77.199-14.898 3.5c-9.6016 2.1992-19.602 1.8008-28.898-1.3008-10.301-3.3984-21.398-3.8984-32-1.1992l-12.203 3c-1.1016 0.30078-1.6992 1.3984-1.5 2.3984s1.3984 1.6992 2.3984 1.5l12.402-3.0977c9.8008-2.5 20.102-2.1016 29.699 1.1016 5.8984 1.8984 12 2.8984 18.102 2.8984 4.3008 0 8.6992-0.5 13-1.5l14.898-3.5c1.1016-0.30078 1.6992-1.3008 1.5-2.3984-0.30078-1-1.3984-1.6016-2.5-1.4023z"/>
 <path d="m6.5 76.102 8-2h0.10156l4.3008-1.1016c9.8008-2.5 20.102-2.1016 29.699 1.1016 5.8984 1.8984 12 2.8984 18.102 2.8984 4.3008 0 8.6992-0.5 13-1.5l14.898-3.5c1.1016-0.30078 1.6992-1.3008 1.5-2.3984-0.30078-1.1016-1.3008-1.6992-2.3984-1.5l-14.898 3.5c-0.30078 0.10156-0.69922 0.10156-1 0.19922l14.5-17.199c1-1.1992 1.1992-2.8008 0.60156-4.3008-0.60156-1.5-2.1016-2.3008-3.6016-2.3008h-8.6992l-19.105-20.699c-1.1016-1.3008-2.8008-2-4.5-2h-12.699l-6.3984-8.8984c-1.1016-1.5039-3.0039-2.4023-4.9023-2.4023h-4.3008c-2.1992 0-4 1.8008-4 4v7.3984h-2.1992c-2.8008 0-5.1992 1.8984-5.8008 4.6016l-4.3984 18.301c-2.6016 0.39844-4.6992 2.6016-5 5.3008-0.5 5.6992-0.30078 12.898 2.8984 17.398l-4.6992 1.1992c-1.1016 0.30078-1.6992 1.3984-1.5 2.3984 0.19922 1.0039 1.3984 1.7031 2.5 1.5039zm22.199-58.102h4.3008c0.60156 0 1.1992 0.30078 1.6016 0.80078l4.6992 6.5h-10.602zm-8.0977 12.801c0.19922-0.89844 1-1.5 1.8984-1.5h34.5c0.60156 0 1.1016 0.19922 1.5 0.69922l4.1016 4.5h-42.902zm-1.8008 7.5977h47.398l8.8008 9.6992-58.5 0.003906zm-7.4023 15.602c0.10156-1 1-1.8008 2-1.8008h75.699l-17.496 20.602c-7.3008 0.69922-14.801-0.10156-21.801-2.5-10.301-3.3984-21.398-3.8984-32-1.1992l-3.3008 0.80078c-3.8984-3.4023-3.5-12.203-3.1016-15.902z"/>
 <path d="m66.699 66.898c3.3008 0 6-2.6992 6-6 0-3.3008-2.6992-6-6-6s-6 2.6992-6 6c0 3.3008 2.6016 6 6 6zm0-8c1.1016 0 2 0.89844 2 2 0 1.1016-0.89844 2-2 2-1.1016 0-2-0.89844-2-2 0-1.0977 0.90234-2 2-2z"/>
<text x="0.0" y="117.5" font-size="5.0" font-weight="bold" font-family="Arbeit Regular, Helvetica, Arial-Unicode, Arial, Sans-serif" fill="#000000">Created by Camilo Carlos</text><text x="0.0" y="122.5" font-size="5.0" font-weight="bold" font-family="Arbeit Regular, Helvetica, Arial-Unicode, Arial, Sans-serif" fill="#000000">from Noun Project</text></svg>